<svg id="Layer_1" data-name="Layer 1" xmlns="http://www.w3.org/2000/svg" viewBox="0 0 200 50"><rect x="24.3814" width="151.2373" height="50" rx="5" fill="#010203"/><path id="path7" d="M47.9371,6.8258a9.0169,9.0169,0,0,0-9.0217,9.012v3.391c-1.751.3167-3.507.74-3.507,1.288V38.1627a.8313.8313,0,0,0,.5484.7195c1.9875.8049,9.8066,3.5726,11.6029,4.2065a.8987.8987,0,0,0,.3573.0855.8246.8246,0,0,0,.3572-.0855c1.7963-.634,9.6356-3.4012,11.623-4.2065a.84.84,0,0,0,.5284-.6994V20.5168c0-.5484-1.7309-.9912-3.4869-1.288V15.8475a8.9965,8.9965,0,0,0-8.9714-9.0217Zm0,4.3121a4.345,4.345,0,0,1,4.7146,4.7146V18.791a64.0289,64.0289,0,0,0-9.4242,0V15.8525A4.3413,4.3413,0,0,1,47.9371,11.1379Zm-.02,11.98c4.1007,0,7.5424.3167,7.5424.8855V35.0129c0,.1714-.02.1912-.1711.2516-.1459.0654-6.9939,2.536-6.9939,2.536a2.3428,2.3428,0,0,1-.3573.0855A1.86,1.86,0,0,1,47.58,37.78s-6.8481-2.47-6.994-2.5359-.1713-.0855-.1713-.2516V23.9836C40.3746,23.4151,43.8162,23.1182,47.917,23.1182Z" fill="#fff"/><g id="g3222"><path id="path13" d="M72.062,35.163V23.107H67.657V18.7837H81.3915V23.107H77.03V35.163Z" fill="#fff"/><path id="path15" d="M92.5194,35.163l-2.26-5.15H88.4606v5.15H83.4929V18.7837h8.7427c3.8373,0,5.8958,2.5439,5.8958,5.612a5.2765,5.2765,0,0,1-2.9479,4.9677l2.9671,5.795H92.5194Zm.5867-10.7673c0-.89-.7886-1.2743-1.6158-1.2743h-3.03v2.5872h3.03c.8271-.0192,1.6157-.4039,1.6157-1.3129Z" fill="#fff"/><path id="path17" d="M100.7379,35.163V18.7837h12.4215V23.107h-7.4731v1.6158h7.29V29.046h-7.29v1.7986h7.4731V35.163Z" fill="#fff"/><path id="path19" d="M115.7418,35.1823V31.2437l6.2421-8.1175h-6.2421V18.8029h12.7823v3.9l-6.2613,8.1608h6.4441v4.3233Z" fill="#fff"/><path id="path21" d="M129.9187,27.0022c0-5.03,3.9-8.483,8.9687-8.483,5.0494,0,8.9687,3.4336,8.9687,8.483,0,5.03-3.9,8.464-8.9687,8.464S129.9187,32.0326,129.9187,27.0022Zm12.8881,0a3.9418,3.9418,0,1,0-7.877,0,3.9417,3.9417,0,1,0,7.8769,0Z" fill="#fff"/><path id="path23" d="M158.96,35.1823l-2.26-5.1506h-1.7983v5.15h-4.9676V18.8029h8.7427c3.8373,0,5.8958,2.544,5.8958,5.6121a5.2765,5.2765,0,0,1-2.9479,4.9676l2.9671,5.795H158.96Zm.606-10.7866c0-.89-.7887-1.2743-1.6158-1.2743h-3.03v2.5872h3.03C158.7821,25.6894,159.566,25.3047,159.566,24.3957Z" fill="#fff"/></g></svg>